<svg xmlns="http://www.w3.org/2000/svg" xmlns:xlink="http://www.w3.org/1999/xlink" viewBox="0 0 68.51 82.76"><defs><style>.cls-1{fill:url(#Gradiente_sem_nome_28);}</style><linearGradient id="Gradiente_sem_nome_28" y1="41.38" x2="68.51" y2="41.38" gradientUnits="userSpaceOnUse"><stop offset="0" stop-color="#265ce8"/><stop offset="1" stop-color="#359fff"/></linearGradient></defs><g id="Camada_2" data-name="Camada 2"><path class="cls-1" d="M36,82.76a18,18,0,0,1-18-18,2.5,2.5,0,0,1,5,0,13,13,0,0,0,26,0,2.5,2.5,0,0,1,5,0A18,18,0,0,1,36,82.76Zm.16-17.29V31.2a4.73,4.73,0,0,1,4.73-4.73H43a2.5,2.5,0,0,0,0-5H40.86a9.74,9.74,0,0,0-9.73,9.73V65.47a2.5,2.5,0,1,0,5,0Zm-10-51.64,21.37-6.4L26.15.5,5,6.89Zm.14.48,21.37-6.4A.51.51,0,0,0,48,7.43.5.5,0,0,0,47.67,7L26.3,0A.51.51,0,0,0,26,0L4.83,6.41a.5.5,0,0,0,0,1L26,14.31l.16,0A.32.32,0,0,0,26.29,14.31ZM26.14,1l19.7,6.39-19.68,5.9L6.64,6.91ZM30,21.82a15.64,15.64,0,0,1,7.68-3.08l5-.57V9.31a1.5,1.5,0,0,0-3,0v6.18l-2.37.27a18.7,18.7,0,0,0-9.15,3.67l-2,1.48-2-1.48a18.7,18.7,0,0,0-9.15-3.67l-2.37-.27V9a1.5,1.5,0,0,0-3,0v9.22l5,.57a15.68,15.68,0,0,1,7.68,3.08l3.77,2.86ZM7.47,6.88h-3v7.87h3Zm0,21V14.81a1.5,1.5,0,0,0-3,0V27.87a1.5,1.5,0,1,0,3,0ZM11.3,29.1A1.51,1.51,0,0,0,11.68,27L7.2,20.59a1.5,1.5,0,0,0-2.46,1.72l4.47,6.42a1.5,1.5,0,0,0,2.09.37ZM68.51,49V36.79a2.5,2.5,0,0,0-5,0V49c0,2.23-2.3,4-5.13,4s-5.12-1.82-5.12-4V35.7a2.59,2.59,0,0,0-2.59-2.58h-17a2.5,2.5,0,0,0,0,5H48.26V49c0,5,4.54,9,10.12,9S68.51,53.94,68.51,49ZM23.38,47.89v-5a9.54,9.54,0,0,0-9.53-9.53H11.36a9.54,9.54,0,0,0-9.53,9.53v5a9.54,9.54,0,0,0,9.53,9.53h2.49A9.54,9.54,0,0,0,23.38,47.89Zm-9.53-9.53a4.53,4.53,0,0,1,4.53,4.53v5a4.53,4.53,0,0,1-4.53,4.53H11.36a4.53,4.53,0,0,1-4.53-4.53v-5a4.53,4.53,0,0,1,4.53-4.53ZM2.73,28.73,7.2,22.31a1.5,1.5,0,1,0-2.46-1.72L.27,27a1.5,1.5,0,0,0,2.46,1.72Z"/></g></svg>